<svg xmlns="http://www.w3.org/2000/svg" viewBox="0 0 252.39 168.26">
    <defs>
        <style>
            .cls-1{fill:#df3043;}.cls-2{fill:#f0efef;}.cls-3{fill:#e6be1e;}
        </style>
    </defs>
    <g id="Layer_2" data-name="Layer 2">
        <g id="Layer_1-2" data-name="Layer 1">
            <path class="cls-1" d="M.46,0H252.39V56.09H.46Z"/>
            <path class="cls-2" d="M0,56.09H251.94v56.08H0Z"/>
            <path class="cls-1" d="M.46,112.17H252.39v56.09H.46Z"/>
            <path class="cls-3" d="M83.91,111.94H75.19A23.34,23.34,0,0,1,51.84,88.59V55.72h55.43V88.59A23.35,23.35,0,0,1,83.91,111.94Z"/>
            <path class="cls-1" d="M100.36,75.25H59V61.91h41.32Z"/>
            <path class="cls-1" d="M84.74,105.51H74.91A15.73,15.73,0,0,1,59.18,89.78V85.49h41.29v4.29A15.73,15.73,0,0,1,84.74,105.51Z"/>
            <path class="cls-2" d="M100.36,90.73H59.18V75.37h41.18Z"/>
        </g>
    </g>
</svg>
