<svg xmlns="http://www.w3.org/2000/svg" viewBox="0 0 252.39 168.26">
    <defs>
        <style>
            .cls-1{fill:#20659a;}.cls-2{fill:#f0efef;}.cls-3{fill:#df3043;}
        </style>
    </defs>
    <g id="Layer_2" data-name="Layer 2">
        <g id="Layer_1-2" data-name="Layer 1">
            <path class="cls-1" d="M163.74,82.62,252.39,24.1V138Z"/>
            <path class="cls-1" d="M125.93,105.51l100.53,62.75H30.87Z"/>
            <path class="cls-1" d="M89,82.58,0,141.3V27.05Z"/>
            <path class="cls-1" d="M126.77,59.69,31.14,0H217.19Z"/>
            <path class="cls-1" d="M126.76,81.53l0,0-1.41,2,0,0Z"/>
            <path class="cls-2" d="M126.77,59.69,217.19,0h11.56l-96,63.4Z"/>
            <path class="cls-2" d="M126.76,81.53l0,0h0l0,0Z"/>
            <path class="cls-2" d="M145.31,71.11,252.39.43V24.1L163.74,82.62Z"/>
            <path class="cls-2" d="M125.93,105.51,30.87,168.26H19.31L120,101.8Z"/>
            <path class="cls-2" d="M125.35,83.5l0,0h0l0,0Z"/>
            <path class="cls-2" d="M107.39,94.09,0,165V141.3L89,82.58Z"/>
            <path class="cls-3" d="M120,101.8,19.31,168.26H0V165L107.39,94.09l7.16,4.46,10.8-15,0,0L114.67,98.48Z"/>
            <path class="cls-3" d="M132.71,63.4l96-63.4h23.64V.43L145.31,71.11l-7.59-4.74L126.8,81.58l0,0,10.83-15.08Z"/>
            <path class="cls-2" d="M89,82.58,0,27.05V16.59L113.25,87.28l7.81-10.88L0,.84V0H31.14l95.63,59.69,5.94,3.71,4.88,3.05L126.76,81.53h0l-1.41,2h0l-10.8,15-7.16-4.46Z"/>
            <path class="cls-3" d="M0,16.59V.84L121.06,76.4l-7.81,10.88Z"/>
            <path class="cls-2" d="M252.39,138v4.94L137.12,70.94l-7.81,10.88,123.08,76.83v9.61H226.46L125.93,105.51,120,101.8l-5.32-3.32,10.72-14.93h0l1.41-2h0l10.92-15.21,7.59,4.74,18.43,11.51Z"/>
            <path class="cls-3" d="M252.39,142.89v15.76L129.31,81.82l7.81-10.88Z"/>
            <path class="cls-2" d="M161.35,168.26H91V0h70.31Z"/>
            <path class="cls-2" d="M252.39,116.06H0V52.2H252.39Z"/>
            <path class="cls-3" d="M146.74,168.26H105.65V0h41.09Z"/>
            <path class="cls-3" d="M252.39,102.86H0V65.4H252.39Z"/>
        </g>
    </g>
</svg>
