<svg xmlns="http://www.w3.org/2000/svg" viewBox="0 0 252.39 168.26">
    <defs>
        <style>
            .cls-1{fill:#4c4c4d;}.cls-2{fill:#f0efef;}.cls-3{fill:#df3043;}.cls-4{fill:#fff;stroke:#4c4c4d;stroke-miterlimit:10;}
        </style>
    </defs>
    <g id="Layer_2" data-name="Layer 2">
        <g id="Layer_1-2" data-name="Layer 1">
            <path class="cls-1" d="M0,0H252.39V56.09H0Z"/>
            <path class="cls-2" d="M0,56.09H252.39v56.08H0Z"/>
            <path class="cls-3" d="M0,112.17H252.39v56.09H0Z"/>
            <path class="cls-4" d="M110.87,65.17c-.66-6.84-3.32-11.89-6.51-17.24A207.49,207.49,0,0,0,91.72,29.17h63.19a89,89,0,0,0-14.55,36.76,96.9,96.9,0,0,0,15.57-4.85,98,98,0,0,0,21.71-12.25l1.14,63.83a83,83,0,0,0-12.51-8,84.53,84.53,0,0,0-25-8.43,94.44,94.44,0,0,0,8.56,24.89,93,93,0,0,0,7,11.62l-60.13,1A95,95,0,0,0,107,113.42a95.69,95.69,0,0,0,4.47-16.85,58.56,58.56,0,0,0-16.6,4.09A59.3,59.3,0,0,0,74,115.21Q73.33,82,72.7,48.7a72.72,72.72,0,0,0,19,12.64A72.61,72.61,0,0,0,111,67.08C111,66.64,111,66,110.87,65.17Z"/>
            <path class="cls-1" d="M100.91,33.38a71.59,71.59,0,0,1,13.41,24.51,70.87,70.87,0,0,1,2.87,14.36,69.13,69.13,0,0,1-21.45-4,69.65,69.65,0,0,1-18.19-9.76q.39,22.78.77,45.57a73.91,73.91,0,0,1,38.29-12.45,91.54,91.54,0,0,1-3.63,18,91.27,91.27,0,0,1-8.43,19.15l43.47.39a65.4,65.4,0,0,1-7.47-14,66.58,66.58,0,0,1-4.4-25.85,108.89,108.89,0,0,1,37.34,13.78l-1-45.38a88.63,88.63,0,0,1-14.75,8.23A88.56,88.56,0,0,1,135,72.45a62.74,62.74,0,0,1,11.68-38.3Z"/>
        </g>
    </g>
</svg>
