<svg xmlns="http://www.w3.org/2000/svg" viewBox="0 0 252.39 168.26">
    <defs>
        <style>
            .cls-1{fill:#5d9240;}.cls-2{fill:#f0efef;}.cls-3{fill:#df3043;}.cls-4{fill:#253c7c;}
        </style>
    </defs>
    <g id="Layer_2" data-name="Layer 2">
        <g id="Layer_1-2" data-name="Layer 1">
            <path class="cls-1" d="M0,0H84.13V168.26H0Z"/>
            <path class="cls-2" d="M84.13,0h84.13V168.26H84.13Z"/>
            <path class="cls-3" d="M168.26,0h84.13V168.26H168.26Z"/>
            <path class="cls-4" d="M149.93,125.72H102.46a13.39,13.39,0,0,1-13.38-13.39V42.55h74.23v69.78A13.39,13.39,0,0,1,149.93,125.72Z"/>
            <path class="cls-3" d="M150.47,117.19H101.54a3.72,3.72,0,0,1-3.72-3.71V55.42a3.72,3.72,0,0,1,3.72-3.71h48.93a3.72,3.72,0,0,1,3.72,3.71v58.06A3.72,3.72,0,0,1,150.47,117.19Z"/>
            <path class="cls-2" d="M130.82,117.23h-9.95V51.72h9.95Z"/>
            <path class="cls-2" d="M97.81,89.08v-9.9h56.37v9.9Z"/>
        </g>
    </g>
</svg>
