<svg xmlns="http://www.w3.org/2000/svg" viewBox="0 0 252.39 168.26">
    <defs>
        <style>
            .cls-1{fill:#f0efef;}.cls-2{fill:#20659a;}.cls-3{fill:#df3043;}.cls-4{fill:#ffc944;}.cls-5{fill:#4f7597;}.cls-6{fill:#4c4c4d;}.cls-7{fill:#d9352b;}
        </style>
    </defs>
    <g id="Layer_2" data-name="Layer 2">
        <g id="Layer_1-2" data-name="Layer 1">
            <path class="cls-1" d="M0,0H252.39V56.09H0Z"/>
            <path class="cls-2" d="M0,56.09H252.39v56.08H0Z"/>
            <path class="cls-3" d="M0,112.17H252.39v56.09H0Z"/>
            <path class="cls-4" d="M111.14,111.65H0V0H111.14Z"/>
            <path class="cls-5" d="M28.55,19.48a2.61,2.61,0,0,0,.38-1.59,5.1,5.1,0,0,1,3.77-3.45,5,5,0,0,1,5.55,3.07c.45,1.48-.65,2.13-.19,4a5.75,5.75,0,0,0,2.49,3.32,6.12,6.12,0,0,0,5.81.25A7.78,7.78,0,0,0,49,22.8,9.55,9.55,0,0,0,50.12,21c-.51-.67-1-1.41-1.53-2.24a25.1,25.1,0,0,1-2.3-4.91c0-.18-.41-3.23,1.79-5a4.91,4.91,0,0,1,2.75-1A6.58,6.58,0,0,1,53.25,6.4,7.38,7.38,0,0,1,59,7l3.44,1.78a6.08,6.08,0,0,1,2.11,3.9c.14,1.68-.64,3.08-2,5.62-.61,1.09-1.19,2-1.6,2.55a7.08,7.08,0,0,0,1.53,2.93c2.12,2.4,6.2,3.49,8.36,1.86a5.94,5.94,0,0,0,1.85-3.83c.25-1.92-.47-3,.26-4.34A3.75,3.75,0,0,1,74.7,16a5,5,0,0,1,4-1,4.75,4.75,0,0,1,2.74,1.73,4.05,4.05,0,0,0,.71,3.12,4.18,4.18,0,0,0,3.44,1.54,4,4,0,0,0-2.23.57A4.12,4.12,0,0,0,82,23.19,4.56,4.56,0,0,1,79,18.78a1.37,1.37,0,0,0-1.4-1,1.28,1.28,0,0,0-.83.58c-.24.56-.58,1.35-1,2.3-1.52,3.27-2.29,4.9-3.07,5.61-2.42,2.21-6.68,1.5-8.93.64a11.12,11.12,0,0,1-5.3-4.34,10.83,10.83,0,0,1-1.15-2.42,6.29,6.29,0,0,0-2.42-.26,6.77,6.77,0,0,0-1.47.32l-3.83,5.3A9.51,9.51,0,0,1,44,27.65c-3.59.12-7.56-2-8.24-4.59a21.08,21.08,0,0,0-.64-2.75C34.53,18.47,34,18,33.59,17.82a2.14,2.14,0,0,0-1.4-.06,7,7,0,0,1-1,3.58,6.84,6.84,0,0,1-2.37,2.29,4.48,4.48,0,0,0-1.34-1.46c-.94-.65-1.78-.67-1.78-1C25.66,20.75,27.69,20.79,28.55,19.48Z"/>
            <path class="cls-6" d="M58,33c2.71-4.28,4.11-6.44,6.51-7.38.94-.36,3.33-1.06,7,.39,2.53,1.56,3.88,4.23,3.35,6.51-.7,3-4.26,4-5.56,4.31a10.49,10.49,0,0,1-6-.2,15.93,15.93,0,0,0,1.34,7.57A16.23,16.23,0,0,0,72.18,52,34.87,34.87,0,0,0,84.34,23.44a33.49,33.49,0,0,1,9.57,8.71c6,8.21,10.89,23.1,3.35,33.61a21,21,0,0,1-31.59,3.45,3,3,0,0,0-2.11,1.53,2.88,2.88,0,0,0-.19,2,19.7,19.7,0,0,1,5.46,9.1c2.71,10.33-4.8,19.06-5.94,20.39a26.39,26.39,0,0,1-7.56,6C44.94,103.07,39,93.49,40.39,84.81a18.55,18.55,0,0,1,5.36-10,2.91,2.91,0,0,0,1.44-3.54,2.71,2.71,0,0,0-1.82-1.34c-2,1.74-6.86,5.4-13.41,5.46-10.69.08-18.64-9.51-21.44-17.72-3.77-11,.42-23.47,8.61-29.87a23.8,23.8,0,0,1,8.24-4.12A28.91,28.91,0,0,0,40.58,51.69a16.32,16.32,0,0,0,6.7-9.29,14.45,14.45,0,0,0,.39-4.21,9.69,9.69,0,0,1-7.28-2.11C38,34,36.19,30,37.8,27.65c1.45-2.09,4.94-1.79,5.84-1.72,4.18.35,6.84,3.43,7.86,4.6A15.59,15.59,0,0,1,55,38.28,58.23,58.23,0,0,1,58,33Z"/>
            <path class="cls-4" d="M63.65,65.31H47.06V46.55H63.65Z"/>
            <path class="cls-7" d="M62.38,63.91H48.21V48H62.38Z"/>
        </g>
    </g>
</svg>
