<svg xmlns="http://www.w3.org/2000/svg" viewBox="0 0 252.39 168.26">
    <defs>
        <style>
            .cls-1{fill:#df3043;}.cls-2{fill:#f0efef;}
        </style>
    </defs>
    <g id="Layer_2" data-name="Layer 2">
        <g id="Layer_1-2" data-name="Layer 1">
            <path class="cls-1" d="M0,0H252.39V168.26H0Z"/>
            <path class="cls-2" d="M132.26,85.56c0,23.9-20.64,43.28-46.11,43.28S40,109.46,40,85.56,60.69,42.28,86.15,42.28,132.26,61.66,132.26,85.56Z"/>
            <path class="cls-1" d="M136.15,85.29c0,19.77-17.08,35.8-38.14,35.8s-38.15-16-38.15-35.8S76.94,49.49,98,49.49,136.15,65.52,136.15,85.29Z"/>
            <path class="cls-2" d="M162.72,74l-7.86,12.47,6.55,13.12-15.14-3.13-11.34,9.86-1.5-14.41-13.56-7,14.22-5.77,3-14.2,10.28,10.84Z"/>
        </g>
    </g>
</svg>
